#define arrow_right_width 16
#define arrow_right_height 16
static unsigned char arrow_right_bits[] = {
   0x00, 0x00, 0x00, 0x00, 0x18, 0x00, 0x78, 0x00, 0xe0, 0x01, 0xc0, 0x07,
   0x00, 0x0f, 0x00, 0x3c, 0x00, 0x3c, 0x00, 0x0f, 0xc0, 0x07, 0xe0, 0x01,
   0x78, 0x00, 0x18, 0x00, 0x00, 0x00, 0x00, 0x00};
