#define arrow_left_width 16
#define arrow_left_height 16
static unsigned char arrow_left_bits[] = {
   0x00, 0x00, 0x00, 0x00, 0x00, 0x18, 0x00, 0x1e, 0x80, 0x07, 0xe0, 0x03,
   0xf0, 0x00, 0x3c, 0x00, 0x3c, 0x00, 0xf0, 0x00, 0xe0, 0x03, 0x80, 0x07,
   0x00, 0x1e, 0x00, 0x18, 0x00, 0x00, 0x00, 0x00};
