#define redraw_width 16
#define redraw_height 16
static unsigned char redraw_bits[] = {
   0x00, 0x00, 0xfe, 0x00, 0x8c, 0x01, 0x8c, 0x03, 0x0c, 0x03, 0x8c, 0x03,
   0x8c, 0x01, 0xfc, 0x10, 0xcc, 0x10, 0x8c, 0x7d, 0x8c, 0x11, 0x0c, 0x13,
   0x1e, 0x07, 0x00, 0x00, 0x00, 0x00, 0x00, 0x00};
