#define y_centre_width 16
#define y_centre_height 16
static unsigned char y_centre_bits[] = {
   0x00, 0x00, 0xfe, 0x7f, 0xfe, 0x7f, 0x00, 0x00, 0x00, 0x00, 0x80, 0x01,
   0x80, 0x01, 0xe0, 0x07, 0xe0, 0x07, 0x80, 0x01, 0x80, 0x01, 0x00, 0x00,
   0x00, 0x00, 0xfe, 0x7f, 0xfe, 0x7f, 0x00, 0x00};
