#define y_fullscale_width 16
#define y_fullscale_height 16
static unsigned char y_fullscale_bits[] = {
   0x00, 0x00, 0xfe, 0x7f, 0xfe, 0x7f, 0x80, 0x00, 0x40, 0x01, 0x40, 0x01,
   0x40, 0x01, 0x40, 0x01, 0x24, 0x12, 0x2a, 0x2a, 0x2a, 0x2a, 0x2a, 0xaa,
   0x11, 0x44, 0xfe, 0x7f, 0xfe, 0x7f, 0x00, 0x00};
