#define y_section_width 16
#define y_section_height 16
static unsigned char y_section_bits[] = {
   0x00, 0x00, 0x66, 0x66, 0x00, 0x00, 0x00, 0x00, 0xfe, 0x7f, 0xfe, 0x7f,
   0x00, 0x00, 0x00, 0x00, 0x00, 0x00, 0xfe, 0x7f, 0xfe, 0x7f, 0x00, 0x00,
   0x00, 0x00, 0x00, 0x00, 0x66, 0x66, 0x00, 0x00};
