#define y_shrink_width 16
#define y_shrink_height 16
static unsigned char y_shrink_bits[] = {
   0x80, 0x01, 0xc0, 0x03, 0xe0, 0x07, 0x70, 0x0e, 0x38, 0x1c, 0x1c, 0x38,
   0x0c, 0x30, 0x00, 0x00, 0x00, 0x00, 0x0c, 0x30, 0x1c, 0x38, 0x38, 0x1c,
   0x70, 0x0e, 0xe0, 0x07, 0xc0, 0x03, 0x80, 0x01};
