/* XPM */
static char * Xgremlin_icon_xpm[] = {
/* width height num_colors chars_per_pixel */
"48 48 7 1",
/* colors */
" 	s none  m none  c none",
".	c red3",
"X	c black",
"o	c blue1",
"O	c gold1",
"+	c green3",
"@	c bisque",
/* pixels */
"                                ................",
"  X                     ........................",
"  XX                 ........oooooo.........ooo.",
" XXXX                .........ooooooOOOO...ooo..",
"  X X                 .........ooooooOOOOOoooOO.",
"  X XX             .............ooooooOOOoooOOOO",
"  X  X               ..........OOooooooOoooOOOOO",
"  X  X             X   OOOO..OOOOOooooOoooOOOOOO",
" XX  X            XXXOOOOOOOOOOOOOoooOooooOOOOOO",
"  X  X            X X   OOOOOOOOOoooOooooooOOOOO",
"  X  X           XX XX OOOOOOOOOoooOOOoooooo++OO",
"  X  XX          X   X  OOOOOOOoooO+++Ooooooo++O",
"  X   X          X   X  OOO++Oooo+++++++oooooo++",
" XX   X         XX   XX  O+++ooo+++++++++oooooo+",
"  X   X         X     X ++++++++X+++++++++++++++",
"  X   X         X     X +++++++XXX +++++++++++++",
"  X   X         X     X +++++++X X  +++++ XX  ++",
"  X   X        XX     XX +++++XX XX  +++ XX X   ",
"  X   X        X       X      X   X      X   X  ",
" XXXXXXXXXXXXXXXXXXXXXXXXXXXXXXXXXXXXXXXXXXXXXX ",
"  X   X        X       X      X   X     X     X ",
"  X   XX       X        X     X   XX   XX       ",
"  X    X       X       XXX   XX    X   X        ",
"  X    X      XX       X@X   X     X   X        ",
" XX    X      X       XXXXX  X     XX XX        ",
"  X    X      X       XX@@X XX      XXX         ",
"  X    X      X       X@@@X X                   ",
"  X    X      X       X@@XXXX                   ",
"  X    XX    XX       X@X@@X                    ",
" XX     X    X       XXX@@@X                    ",
"  X     X    X       XX@@@XX                    ",
"  X     X    X       X@@@X@X                    ",
"  X     X   XX      XX@@X@@X                    ",
"  X     XX  X       X@@X@@@XX                   ",
" XX      X XX       X@X@@@X@X                   ",
"  X       XX       XXX@@@X@@X                   ",
"  X                XX@@@X@@@XX                  ",
"  X               XX@@@X@@@X@XX                 ",
"                 XX@@@X@@@X@@@XX                ",
"                XX@@@X@@@X@@@X@XX               ",
"              XXX@@@X@@@X@@@X@@@XXX             ",
"          XXXXXX@@@X@@@X@@@X@@@X@@XXXXX         ",
"      XXXXX@@@X@@@X@@@X@@@X@@@X@@@X@@@XXXX      ",
" XXXXXX@@X@@@X@@@X@@@X@@@X@@@X@@@X@@@X@@@XXXXXX ",
" @@@X@@@X@@@X@@@X@@@X@@@X@@@X@@@X@@@X@@@X@@@X@@ ",
" XXXXXXXXXXXXXXXXXXXXXXXXXXXXXXXXXXXXXXXXXXXXXX ",
"     X    X    X    X    X    X    X    X    X  ",
"                                                "};
