#define undoplot_width 16
#define undoplot_height 16
static unsigned char undoplot_bits[] = {
   0x00, 0x00, 0xfe, 0x7f, 0xfe, 0x7f, 0x06, 0x60, 0x06, 0x6c, 0x06, 0x6f,
   0xc6, 0x63, 0xf6, 0x60, 0xf6, 0x60, 0xc6, 0x63, 0x06, 0x6f, 0x06, 0x6c,
   0x06, 0x60, 0xfe, 0x7f, 0xfe, 0x7f, 0x00, 0x00};
