#define x_centre_width 16
#define x_centre_height 16
static unsigned char x_centre_bits[] = {
   0x00, 0x00, 0x06, 0x60, 0x06, 0x60, 0x06, 0x60, 0x06, 0x60, 0x86, 0x61,
   0x86, 0x61, 0xe6, 0x67, 0xe6, 0x67, 0x86, 0x61, 0x86, 0x61, 0x06, 0x60,
   0x06, 0x60, 0x06, 0x60, 0x06, 0x60, 0x00, 0x00};
