#define x_expand_width 16
#define x_expand_height 16
static unsigned char x_expand_bits[] = {
   0x00, 0x00, 0x00, 0x00, 0x03, 0xc0, 0x07, 0xe0, 0x0e, 0x70, 0x1c, 0x38,
   0x38, 0x1c, 0x70, 0x0e, 0x70, 0x0e, 0x38, 0x1c, 0x1c, 0x38, 0x0e, 0x70,
   0x07, 0xe0, 0x03, 0xc0, 0x00, 0x00, 0x00, 0x00};
