#define x_section_width 16
#define x_section_height 16
static unsigned char x_section_bits[] = {
   0x00, 0x00, 0x32, 0x46, 0x32, 0x46, 0x30, 0x06, 0x32, 0x46, 0x32, 0x46,
   0x30, 0x06, 0x32, 0x46, 0x32, 0x46, 0x30, 0x06, 0x32, 0x46, 0x32, 0x46,
   0x30, 0x06, 0x32, 0x46, 0x32, 0x46, 0x00, 0x00};
