#define Xgremlin_phase_width 48
#define Xgremlin_phase_height 48
static unsigned char Xgremlin_phase_bits[] = {
   0x00, 0x00, 0x00, 0x00, 0x00, 0x00, 0x04, 0x47, 0x1f, 0x00, 0x00, 0x00,
   0x0c, 0x49, 0x04, 0xe0, 0x07, 0x30, 0x1e, 0x29, 0x04, 0xc0, 0x0f, 0x18,
   0x14, 0x27, 0x04, 0x80, 0x1f, 0x0c, 0x34, 0x21, 0x04, 0x00, 0x3f, 0x06,
   0x24, 0x11, 0x04, 0x00, 0x7e, 0x03, 0x24, 0x11, 0x04, 0x00, 0xbc, 0x01,
   0x26, 0x00, 0x18, 0x00, 0xd8, 0x00, 0x24, 0x00, 0x14, 0x00, 0xec, 0x01,
   0x24, 0x00, 0x36, 0x00, 0xf6, 0x03, 0x64, 0x00, 0x22, 0x00, 0xe3, 0x07,
   0x44, 0x00, 0x22, 0x80, 0xc1, 0x0f, 0x46, 0x00, 0x63, 0xc0, 0x80, 0x1f,
   0x44, 0x00, 0x41, 0x60, 0x01, 0x3f, 0x44, 0x00, 0x41, 0x80, 0x03, 0x00,
   0x44, 0x00, 0x41, 0x80, 0x02, 0x0c, 0x44, 0x80, 0xc1, 0xc0, 0x06, 0x16,
   0x44, 0x80, 0x80, 0x40, 0x04, 0x22, 0xfe, 0xff, 0xff, 0xff, 0xff, 0x7f,
   0x44, 0x80, 0x80, 0x40, 0x04, 0x41, 0xc4, 0x80, 0x00, 0x41, 0x8c, 0x01,
   0x84, 0x80, 0x80, 0x63, 0x88, 0x00, 0x84, 0xc0, 0x80, 0x22, 0x88, 0x00,
   0x86, 0x40, 0xc0, 0x27, 0xd8, 0x00, 0x84, 0x40, 0xc0, 0x34, 0x70, 0x00,
   0x84, 0x40, 0x40, 0x14, 0x00, 0x00, 0x84, 0x40, 0x40, 0x1e, 0x00, 0x00,
   0x84, 0x61, 0x40, 0x09, 0x00, 0x00, 0x06, 0x21, 0xe0, 0x08, 0x00, 0x00,
   0x04, 0x21, 0x60, 0x0c, 0x00, 0x00, 0x04, 0x21, 0x20, 0x0a, 0x00, 0x00,
   0x04, 0x31, 0x30, 0x09, 0x00, 0x00, 0x04, 0x13, 0x90, 0x18, 0x00, 0x00,
   0x06, 0x1a, 0x50, 0x14, 0x00, 0x00, 0x04, 0x0c, 0x38, 0x12, 0x00, 0x00,
   0x04, 0x00, 0x18, 0x31, 0x00, 0x00, 0x04, 0x00, 0x8c, 0x68, 0x00, 0x00,
   0x00, 0x00, 0x46, 0xc4, 0x00, 0x00, 0x00, 0x00, 0x23, 0xa2, 0x01, 0x00,
   0x00, 0xc0, 0x11, 0x11, 0x07, 0x00, 0x00, 0xfc, 0x88, 0x88, 0x7c, 0x00,
   0xc0, 0x47, 0x44, 0x44, 0xc4, 0x03, 0x7e, 0x22, 0x22, 0x22, 0x22, 0x7e,
   0x10, 0x11, 0x11, 0x11, 0x11, 0x11, 0xfe, 0xff, 0xff, 0xff, 0xff, 0x7f,
   0x20, 0x84, 0x10, 0x42, 0x08, 0x21, 0x00, 0x00, 0x00, 0x00, 0x00, 0x00};
